<?xml version="1.0" encoding="UTF-8" standalone="no"?>
<!-- Created with Inkscape (http://www.inkscape.org/) -->

<svg
   xmlns:dc="http://purl.org/dc/elements/1.1/"
   xmlns:cc="http://creativecommons.org/ns#"
   xmlns:rdf="http://www.w3.org/1999/02/22-rdf-syntax-ns#"
   xmlns:svg="http://www.w3.org/2000/svg"
   xmlns="http://www.w3.org/2000/svg"
   xmlns:xlink="http://www.w3.org/1999/xlink"
   xmlns:sodipodi="http://sodipodi.sourceforge.net/DTD/sodipodi-0.dtd"
   xmlns:inkscape="http://www.inkscape.org/namespaces/inkscape"
   id="svg3275"
   height="32"
   width="32"
   version="1.0"
   inkscape:version="0.48.3.1 r9886"
   sodipodi:docname="edit_disabled.svg"
   enable-background="new">
  <metadata
     id="metadata19">
    <rdf:RDF>
      <cc:Work
         rdf:about="">
        <dc:format>image/svg+xml</dc:format>
        <dc:type
           rdf:resource="http://purl.org/dc/dcmitype/StillImage" />
        <dc:title />
      </cc:Work>
    </rdf:RDF>
  </metadata>
  <sodipodi:namedview
     pagecolor="#ffffff"
     bordercolor="#666666"
     borderopacity="1"
     objecttolerance="10"
     gridtolerance="10"
     guidetolerance="10"
     inkscape:pageopacity="0"
     inkscape:pageshadow="2"
     inkscape:window-width="1280"
     inkscape:window-height="1000"
     id="namedview17"
     showgrid="false"
     inkscape:zoom="19.666667"
     inkscape:cx="17.048633"
     inkscape:cy="-1.0018126"
     inkscape:window-x="0"
     inkscape:window-y="24"
     inkscape:window-maximized="1"
     inkscape:current-layer="layer6"
     width="372.05px" />
  <defs
     id="defs3277">
    <radialGradient
       id="radialGradient2469"
       gradientUnits="userSpaceOnUse"
       cy="4.625"
       cx="62.625"
       gradientTransform="matrix(2.1647,0,0,0.75294,-111.56,36.518)"
       r="10.625">
      <stop
         id="stop8840"
         offset="0" />
      <stop
         id="stop8842"
         style="stop-opacity:0"
         offset="1" />
    </radialGradient>
    <linearGradient
       id="linearGradient2452"
       y2="34.224998"
       gradientUnits="userSpaceOnUse"
       x2="24.104"
       gradientTransform="matrix(1.8451,0,0,1.834,-20.057,-17.214)"
       y1="15.181"
       x1="24.104">
      <stop
         id="stop2266"
         style="stop-color:#d7e866"
         offset="0" />
      <stop
         id="stop2268"
         style="stop-color:#8cab2a"
         offset="1" />
    </linearGradient>
    <linearGradient
       id="linearGradient3269"
       y2="45"
       gradientUnits="userSpaceOnUse"
       x2="24"
       y1="5"
       x1="24">
      <stop
         id="stop3261"
         style="stop-color:#fff"
         offset="0" />
      <stop
         id="stop3263"
         style="stop-color:#fff;stop-opacity:0"
         offset="1" />
    </linearGradient>
    <filter
       id="filter2996"
       inkscape:label="Desaturate"
       x="0"
       y="0"
       width="1"
       height="1"
       inkscape:menu="Color"
       inkscape:menu-tooltip="Render in shades of gray by reducing saturation to zero"
       color-interpolation-filters="sRGB">
      <feColorMatrix
         id="feColorMatrix2998"
         type="saturate"
         values="0" />
    </filter>
    <filter
       id="filter2996-7"
       inkscape:label="Desaturate"
       x="0"
       y="0"
       width="1"
       height="1"
       inkscape:menu="Color"
       inkscape:menu-tooltip="Render in shades of gray by reducing saturation to zero"
       color-interpolation-filters="sRGB">
      <feColorMatrix
         id="feColorMatrix2998-8"
         type="saturate"
         values="0" />
    </filter>
    <radialGradient
       id="radialGradient2469-0"
       gradientUnits="userSpaceOnUse"
       cy="4.625"
       cx="62.625"
       gradientTransform="matrix(2.1647,0,0,0.75294,-111.56,36.518)"
       r="10.625">
      <stop
         id="stop8840-6"
         offset="0" />
      <stop
         id="stop8842-8"
         style="stop-opacity:0"
         offset="1" />
    </radialGradient>
    <linearGradient
       id="linearGradient2452-7"
       y2="34.224998"
       gradientUnits="userSpaceOnUse"
       x2="24.104"
       gradientTransform="matrix(1.8451,0,0,1.834,-20.057,-17.214)"
       y1="15.181"
       x1="24.104">
      <stop
         id="stop2266-5"
         style="stop-color:#d7e866"
         offset="0" />
      <stop
         id="stop2268-5"
         style="stop-color:#8cab2a"
         offset="1" />
    </linearGradient>
    <linearGradient
       id="linearGradient3269-4"
       y2="45"
       gradientUnits="userSpaceOnUse"
       x2="24"
       y1="5"
       x1="24">
      <stop
         id="stop3261-9"
         style="stop-color:#fff"
         offset="0" />
      <stop
         id="stop3263-2"
         style="stop-color:#fff;stop-opacity:0"
         offset="1" />
    </linearGradient>
    <linearGradient
       y2="45"
       x2="24"
       y1="5"
       x1="24"
       gradientUnits="userSpaceOnUse"
       id="linearGradient3045"
       xlink:href="#linearGradient3269-4"
       inkscape:collect="always" />
    <linearGradient
       x1="24.481"
       y1="5.0809"
       x2="24.481"
       gradientUnits="userSpaceOnUse"
       y2="45.074"
       id="linearGradient2742">
      <stop
         offset="0"
         style="stop-color:#fff"
         id="stop3783" />
      <stop
         offset="1"
         style="stop-color:#fff;stop-opacity:0"
         id="stop3785" />
    </linearGradient>
    <linearGradient
       x1="63.397"
       y1="-12.489"
       gradientTransform="matrix(2.1154,0,0,2.1153,-107.58,32.427)"
       x2="63.397"
       gradientUnits="userSpaceOnUse"
       y2="5.4676"
       id="linearGradient2745">
      <stop
         offset="0"
         style="stop-color:#fff"
         id="stop4875" />
      <stop
         offset="1"
         style="stop-color:#fff;stop-opacity:0"
         id="stop4877" />
    </linearGradient>
    <radialGradient
       r="20.397"
       gradientTransform="matrix(0,2.2875,-3.0194,0,36.047,-50.63)"
       cx="23.896"
       cy="3.99"
       gradientUnits="userSpaceOnUse"
       id="radialGradient2748">
      <stop
         offset="0"
         style="stop-color:#ffd87e;stop-opacity:1;"
         id="stop3244" />
      <stop
         offset="0.26238"
         style="stop-color:#e7704f;stop-opacity:1;"
         id="stop3246" />
      <stop
         offset="0.66093999"
         style="stop-color:#c6912e;stop-opacity:1;"
         id="stop3248" />
      <stop
         offset="1"
         style="stop-color:#472f35;stop-opacity:1;"
         id="stop3250" />
    </radialGradient>
    <linearGradient
       x1="18.379"
       y1="44.98"
       gradientTransform="matrix(0.95844,0,0,0.95844,0.99751999,1.9975)"
       x2="18.379"
       gradientUnits="userSpaceOnUse"
       y2="3.0816"
       id="linearGradient2750">
      <stop
         offset="0"
         style="stop-color:#791235"
         id="stop2492" />
      <stop
         offset="1"
         style="stop-color:#dd3b27"
         id="stop2494" />
    </linearGradient>
    <radialGradient
       r="10.625"
       gradientTransform="matrix(2.1647,0,0,0.75294,-111.56,36.518)"
       cx="62.625"
       cy="4.625"
       gradientUnits="userSpaceOnUse"
       id="radialGradient2436">
      <stop
         offset="0"
         id="stop8840-7" />
      <stop
         offset="1"
         style="stop-opacity:0"
         id="stop8842-4" />
    </radialGradient>
    <filter
       id="filter3217"
       inkscape:label="Desaturate"
       x="0"
       y="0"
       width="1"
       height="1"
       inkscape:menu="Color"
       inkscape:menu-tooltip="Render in shades of gray by reducing saturation to zero"
       color-interpolation-filters="sRGB">
      <feColorMatrix
         id="feColorMatrix3219"
         type="saturate"
         values="0" />
    </filter>
    <filter
       id="filter3217-8"
       inkscape:label="Desaturate"
       x="0"
       y="0"
       width="1"
       height="1"
       inkscape:menu="Color"
       inkscape:menu-tooltip="Render in shades of gray by reducing saturation to zero"
       color-interpolation-filters="sRGB">
      <feColorMatrix
         id="feColorMatrix3219-4"
         type="saturate"
         values="0" />
    </filter>
    <radialGradient
       r="10.625"
       gradientTransform="matrix(2.1647,0,0,0.75294,-111.56,36.518)"
       cx="62.625"
       cy="4.625"
       gradientUnits="userSpaceOnUse"
       id="radialGradient2436-9">
      <stop
         offset="0"
         id="stop8840-7-6" />
      <stop
         offset="1"
         style="stop-opacity:0"
         id="stop8842-4-6" />
    </radialGradient>
    <radialGradient
       r="20.396999"
       gradientTransform="matrix(0,2.2875,-3.0194,0,36.047,-50.63)"
       cx="23.896"
       cy="3.99"
       gradientUnits="userSpaceOnUse"
       id="radialGradient2748-7">
      <stop
         offset="0"
         style="stop-color:#f8b17e"
         id="stop3244-4" />
      <stop
         offset=".26238"
         style="stop-color:#e35d4f"
         id="stop3246-9" />
      <stop
         offset=".66094"
         style="stop-color:#c6262e"
         id="stop3248-4" />
      <stop
         offset="1"
         style="stop-color:#690b54"
         id="stop3250-7" />
    </radialGradient>
    <linearGradient
       x1="18.379"
       y1="44.98"
       gradientTransform="matrix(0.95844,0,0,0.95844,0.99752,1.9975)"
       x2="18.379"
       gradientUnits="userSpaceOnUse"
       y2="3.0816"
       id="linearGradient2750-9">
      <stop
         offset="0"
         style="stop-color:#791235"
         id="stop2492-2" />
      <stop
         offset="1"
         style="stop-color:#dd3b27"
         id="stop2494-4" />
    </linearGradient>
    <linearGradient
       x1="63.396999"
       y1="-12.489"
       gradientTransform="matrix(2.1154,0,0,2.1153,-107.58,32.427)"
       x2="63.396999"
       gradientUnits="userSpaceOnUse"
       y2="5.4675999"
       id="linearGradient2745-8">
      <stop
         offset="0"
         style="stop-color:#fff"
         id="stop4875-4" />
      <stop
         offset="1"
         style="stop-color:#fff;stop-opacity:0"
         id="stop4877-5" />
    </linearGradient>
    <linearGradient
       x1="24.481001"
       y1="5.0809002"
       x2="24.481001"
       gradientUnits="userSpaceOnUse"
       y2="45.074001"
       id="linearGradient2742-8">
      <stop
         offset="0"
         style="stop-color:#fff"
         id="stop3783-2" />
      <stop
         offset="1"
         style="stop-color:#fff;stop-opacity:0"
         id="stop3785-8" />
    </linearGradient>
    <filter
       x="-.059978"
       y="-.24035"
       color-interpolation-filters="sRGB"
       width="1.12"
       height="1.4807"
       id="filter3699">
      <feGaussianBlur
         stdDeviation="1.0014601"
         id="feGaussianBlur3701" />
    </filter>
    <linearGradient
       x1="23.576"
       y1="25.357"
       gradientTransform="matrix(1.1539,-1.1591,1.1841,1.1777,-33.698,16.09)"
       x2="23.576"
       gradientUnits="userSpaceOnUse"
       y2="31.211"
       id="linearGradient2888">
      <stop
         offset="0"
         id="stop3157" />
      <stop
         offset=".13483"
         style="stop-color:#c3c3c3"
         id="stop3171" />
      <stop
         offset=".20224"
         style="stop-color:#8c8c8c"
         id="stop3173" />
      <stop
         offset=".26966"
         style="stop-color:#fff"
         id="stop3163" />
      <stop
         offset=".44650"
         style="stop-color:#757575"
         id="stop3165" />
      <stop
         offset=".57114"
         style="stop-color:#7d7d7d"
         id="stop3167" />
      <stop
         offset=".72038"
         style="stop-color:#b6b6b6"
         id="stop3169" />
      <stop
         offset="1"
         id="stop3159" />
    </linearGradient>
    <linearGradient
       x1="30.038"
       y1="24.99"
       gradientTransform="matrix(1.1213,-1.1264,1.3858,1.3783,-37.505,10.578)"
       x2="30.038"
       gradientUnits="userSpaceOnUse"
       xlink:href="#linearGradient3240"
       y2="30"
       id="linearGradient2883" />
    <linearGradient
       x1="30.038"
       y1="24.99"
       gradientTransform="matrix(1.1213,-1.1264,1.3858,1.3783,-37.826,10.9)"
       x2="30.038"
       gradientUnits="userSpaceOnUse"
       xlink:href="#linearGradient3223"
       y2="30"
       id="linearGradient2880" />
    <linearGradient
       x1="30.038"
       y1="24.99"
       gradientTransform="matrix(1.1213,-1.1264,1.3858,1.3783,-36.389,9.4567)"
       x2="30.038"
       gradientUnits="userSpaceOnUse"
       xlink:href="#linearGradient3240"
       y2="30"
       id="linearGradient2877" />
    <linearGradient
       x1="30.038"
       y1="24.99"
       gradientTransform="matrix(1.1213,-1.1264,1.3858,1.3783,-36.71,9.7792)"
       x2="30.038"
       gradientUnits="userSpaceOnUse"
       xlink:href="#linearGradient3223"
       y2="30"
       id="linearGradient2874" />
    <linearGradient
       x1="30.038"
       y1="24.99"
       gradientTransform="matrix(1.1213,-1.1264,1.3858,1.3783,-35.268,8.3303)"
       x2="30.038"
       gradientUnits="userSpaceOnUse"
       xlink:href="#linearGradient3240"
       y2="30"
       id="linearGradient2871" />
    <linearGradient
       x1="30.038"
       y1="24.99"
       gradientTransform="matrix(1.1213,-1.1264,1.3858,1.3783,-35.589,8.6529)"
       x2="30.038"
       gradientUnits="userSpaceOnUse"
       xlink:href="#linearGradient3223"
       y2="30"
       id="linearGradient2868" />
    <linearGradient
       x1="5.5179"
       y1="37.372"
       gradientTransform="matrix(0.94216,0,0,0.941,1.4258,3.2093)"
       x2="9.5221"
       gradientUnits="userSpaceOnUse"
       y2="41.392"
       id="linearGradient2865">
      <stop
         offset="0"
         style="stop-color:#cbbd27"
         id="stop3193" />
      <stop
         offset="1"
         style="stop-color:#9b901d"
         id="stop3195" />
    </linearGradient>
    <linearGradient
       x1="9"
       y1="29.057"
       gradientTransform="matrix(1.1213,-1.1264,1.3858,1.3783,-37.931,11.005)"
       x2="9"
       gradientUnits="userSpaceOnUse"
       y2="26.03"
       id="linearGradient2863">
      <stop
         offset="0"
         style="stop-color:#e4db7b"
         id="stop3292" />
      <stop
         offset="1"
         style="stop-color:#f4f0c8"
         id="stop3294" />
    </linearGradient>
    <linearGradient
       id="linearGradient3223">
      <stop
         offset="0"
         style="stop-color:#999"
         id="stop3225" />
      <stop
         offset=".5"
         style="stop-color:#fff"
         id="stop3231" />
      <stop
         offset="1"
         style="stop-color:#777"
         id="stop3227" />
    </linearGradient>
    <linearGradient
       id="linearGradient3240">
      <stop
         offset="0"
         style="stop-color:#3e3e3e"
         id="stop3242" />
      <stop
         offset=".5"
         style="stop-color:#828282"
         id="stop3244-9" />
      <stop
         offset="1"
         style="stop-color:#3c3c3c"
         id="stop3246-6" />
    </linearGradient>
    <filter
       id="filter4638"
       inkscape:label="Desaturate"
       x="0"
       y="0"
       width="1"
       height="1"
       inkscape:menu="Color"
       inkscape:menu-tooltip="Render in shades of gray by reducing saturation to zero"
       color-interpolation-filters="sRGB">
      <feColorMatrix
         id="feColorMatrix4640"
         type="saturate"
         values="0" />
    </filter>
    <linearGradient
       inkscape:collect="always"
       xlink:href="#linearGradient2888"
       id="linearGradient4886"
       gradientUnits="userSpaceOnUse"
       gradientTransform="matrix(1.1539,-1.1591,1.1841,1.1777,-33.698,16.09)"
       x1="23.576"
       y1="25.357"
       x2="23.576"
       y2="31.211" />
    <linearGradient
       inkscape:collect="always"
       xlink:href="#linearGradient3240"
       id="linearGradient4888"
       gradientUnits="userSpaceOnUse"
       gradientTransform="matrix(1.1213,-1.1264,1.3858,1.3783,-37.505,10.578)"
       x1="30.038"
       y1="24.99"
       x2="30.038"
       y2="30" />
    <linearGradient
       inkscape:collect="always"
       xlink:href="#linearGradient3223"
       id="linearGradient4890"
       gradientUnits="userSpaceOnUse"
       gradientTransform="matrix(1.1213,-1.1264,1.3858,1.3783,-37.826,10.9)"
       x1="30.038"
       y1="24.99"
       x2="30.038"
       y2="30" />
    <linearGradient
       inkscape:collect="always"
       xlink:href="#linearGradient3240"
       id="linearGradient4892"
       gradientUnits="userSpaceOnUse"
       gradientTransform="matrix(1.1213,-1.1264,1.3858,1.3783,-36.389,9.4567)"
       x1="30.038"
       y1="24.99"
       x2="30.038"
       y2="30" />
    <linearGradient
       inkscape:collect="always"
       xlink:href="#linearGradient3223"
       id="linearGradient4894"
       gradientUnits="userSpaceOnUse"
       gradientTransform="matrix(1.1213,-1.1264,1.3858,1.3783,-36.71,9.7792)"
       x1="30.038"
       y1="24.99"
       x2="30.038"
       y2="30" />
    <linearGradient
       inkscape:collect="always"
       xlink:href="#linearGradient3240"
       id="linearGradient4896"
       gradientUnits="userSpaceOnUse"
       gradientTransform="matrix(1.1213,-1.1264,1.3858,1.3783,-35.268,8.3303)"
       x1="30.038"
       y1="24.99"
       x2="30.038"
       y2="30" />
    <linearGradient
       inkscape:collect="always"
       xlink:href="#linearGradient3223"
       id="linearGradient4898"
       gradientUnits="userSpaceOnUse"
       gradientTransform="matrix(1.1213,-1.1264,1.3858,1.3783,-35.589,8.6529)"
       x1="30.038"
       y1="24.99"
       x2="30.038"
       y2="30" />
    <linearGradient
       inkscape:collect="always"
       xlink:href="#linearGradient2863"
       id="linearGradient4900"
       gradientUnits="userSpaceOnUse"
       gradientTransform="matrix(1.1213,-1.1264,1.3858,1.3783,-37.931,11.005)"
       x1="9"
       y1="29.057"
       x2="9"
       y2="26.03" />
    <linearGradient
       inkscape:collect="always"
       xlink:href="#linearGradient2865"
       id="linearGradient4902"
       gradientUnits="userSpaceOnUse"
       gradientTransform="matrix(0.94216,0,0,0.941,1.4258,3.2093)"
       x1="5.5179"
       y1="37.372"
       x2="9.5221"
       y2="41.392" />
  </defs>
  <g
     inkscape:groupmode="layer"
     id="layer2"
     inkscape:label="Add"
     style="display:none"
     sodipodi:insensitive="true">
    <g
       id="layer1"
       style="filter:url(#filter2996-7)"
       transform="matrix(0.54347826,0,0,0.54347826,2.4141486,3.7928087)">
      <path
         id="path8836"
         style="opacity:0.3;fill:url(#radialGradient2469-0);fill-rule:evenodd"
         d="m 47,40 c 0,4.4183 -10.297,8 -23,8 -12.703,0 -23,-3.5817 -23,-8 0,-4.4183 10.297,-8 23,-8 12.703,0 23,3.5817 23,8 z"
         inkscape:connector-curvature="0" />
      <path
         id="path2262"
         style="fill:url(#linearGradient2452-7);fill-rule:evenodd;stroke:#699536;stroke-linejoin:round"
         d="m 17.5,18.5 v -13 h 13 v 13 h 13 v 13 h -13 v 13 h -13 v -13 h -13 v -13 h 13 z"
         inkscape:connector-curvature="0" />
      <path
         id="path3267"
         style="opacity:0.4;fill:none;stroke:url(#linearGradient3045)"
         d="m 18.5,6.5 v 12 c -0.0071,0.54933 -0.45067,0.99294 -1,1 h -12 v 11 h 12 c 0.54933,0.0071 0.99294,0.45067 1,1 v 12 h 11 v -12 c 0.0071,-0.54933 0.45067,-0.99294 1,-1 h 12 v -11 h -12 c -0.54933,-0.0071 -0.99294,-0.45067 -1,-1 v -12 h -11 z"
         inkscape:connector-curvature="0" />
    </g>
  </g>
  <g
     inkscape:groupmode="layer"
     id="layer3"
     inkscape:label="Delete"
     style="display:none"
     sodipodi:insensitive="true">
    <g
       id="layer1-8"
       transform="matrix(0.54347826,0,0,0.54347826,2.4141484,3.7673312)"
       style="filter:url(#filter3217)">
      <g
         id="g4449">
        <path
           inkscape:connector-curvature="0"
           id="path8836-1"
           style="opacity:0.3;fill:url(#radialGradient2436);fill-rule:evenodd"
           d="m 47,40 c 0,4.418 -10.297,8 -23,8 -12.703,0 -23,-3.582 -23,-8 0,-4.418 10.297,-8 23,-8 12.703,0 23,3.582 23,8 z" />
        <path
           inkscape:connector-curvature="0"
           id="path2555"
           style="fill:url(#radialGradient2748);stroke:url(#linearGradient2750);stroke-width:1.00370002;stroke-linecap:round;stroke-linejoin:round"
           d="m 24,5.5018 c -10.758,0 -19.498,8.7402 -19.498,19.498 -2e-4,10.758 8.74,19.498 19.498,19.498 10.758,0 19.498,-8.74 19.498,-19.498 0,-10.758 -8.74,-19.498 -19.498,-19.498 z m 0,6.2602 c 7.314,0 13.238,5.924 13.238,13.238 0,3.07 -1.063,5.872 -2.815,8.117 L 17.65,13.379 C 19.535,12.348 21.699,11.762 24,11.762 z M 13.397,17.093 30.11,36.741 c -1.828,0.952 -3.905,1.497 -6.11,1.497 -7.314,0 -13.238,-5.924 -13.238,-13.238 0,-2.971 0.984,-5.699 2.635,-7.907 z" />
        <path
           inkscape:connector-curvature="0"
           id="path8655"
           style="opacity:0.4;fill:none;stroke:url(#linearGradient2745)"
           d="M 42.5,24.999 C 42.5,35.217 34.217,43.5 24,43.5 13.783,43.5 5.5,35.217 5.5,24.999 5.5,14.782 13.783,6.5 24,6.5 c 10.217,0 18.5,8.282 18.5,18.499 z" />
        <path
           inkscape:connector-curvature="0"
           id="path3270"
           style="opacity:0.4;fill:none;stroke:url(#linearGradient2742);stroke-width:1px;stroke-linecap:round"
           d="M 17.05,14.239 33.752,33.926" />
      </g>
    </g>
  </g>
  <g
     inkscape:groupmode="layer"
     id="layer6"
     inkscape:label="Edit"
     style="opacity:0.41258741">
    <g
       id="g4872"
       transform="translate(-0.66101695,-0.15254237)">
      <path
         transform="matrix(0.55704218,0,0,0.55704218,2.3730043,3.0502861)"
         d="m 36.746,36.237 c -0.323,-0.0046 -0.58209,0.0365 -0.75667,0.08021 l -23.247,5.802 -4.2794,1.07 -0.1304,0.027 -5.4272,3.021 12.185,-1.3369 0.10437,-0.02674 4.3052,-1.0695 23.248,-5.8287 c 0.69833,-0.17484 -0.24405,-0.68626 -2.1135,-1.1497 -1.4021,-0.34758 -2.9187,-0.57454 -3.8877,-0.58822 z"
         style="opacity:0.14999999999999999;fill-rule:evenodd;filter:url(#filter3699)"
         id="path2422"
         inkscape:connector-curvature="0" />
      <path
         transform="matrix(0.55704218,0,0,0.55704218,2.3730043,3.0502861)"
         d="m 9.1978,33.011 c 0.77547,-0.59607 2.8374,0.37028 4.691,2.2138 1.8492,1.8391 2.7785,3.8524 2.1948,4.6347 -0.0022,0.003 0.04557,0.04013 0.04331,0.04308 l 28.138,-28.265 c 0.715,-0.718 -0.255,-2.8465 -2.168,-4.7485 -1.912,-1.9021 -4.047,-2.8611 -4.761,-2.1435 l -28.138,28.265 z"
         style="fill:url(#linearGradient4886);stroke:#000000;stroke-linejoin:round;filter:url(#filter4638)"
         id="rect2383"
         inkscape:connector-curvature="0" />
      <path
         transform="matrix(0.55704218,0,0,0.55704218,2.3730043,3.0502861)"
         d="m 33.902,8.1955 c 0.77547,-0.59607 2.8374,0.37028 4.691,2.2138 1.8492,1.8391 2.7785,3.8524 2.1948,4.6347 -0.0022,0.003 0.04557,0.04013 0.04331,0.04308 l 3.4341,-3.4495 0.07008,-0.0704 c 0.0023,-0.003 -0.04553,-0.04009 -0.04331,-0.04307 0.584,-0.782 -0.346,-2.7954 -2.195,-4.6345 -1.854,-1.8436 -3.915,-2.8099 -4.691,-2.2139 l -0.07008,0.070398 -3.4341,3.4495 z"
         style="opacity:0.80000000000000004;fill:#ff9de8;stroke:#dd78c5;stroke-linejoin:round;filter:url(#filter4638)"
         id="rect3175"
         inkscape:connector-curvature="0" />
      <path
         transform="matrix(0.55704218,0,0,0.55704218,2.3730043,3.0502861)"
         d="m 9.1978,33.011 c 0.77547,-0.59607 2.8374,0.37028 4.691,2.2138 1.8492,1.8391 2.7785,3.8524 2.1948,4.6347 -0.0022,0.003 0.04557,0.04013 0.04331,0.04308 l 19.378,-19.465 0.07008,-0.0704 c 0.0023,-0.003 -0.04552,-0.0401 -0.04331,-0.04308 0.58363,-0.78227 -0.34565,-2.7955 -2.1948,-4.6347 -1.8536,-1.8435 -3.9156,-2.8099 -4.691,-2.2138 L 28.5758,13.546 9.1978,33.011 z"
         style="opacity:0.59999999999999998;fill:#808080;filter:url(#filter4638)"
         id="path3208"
         inkscape:connector-curvature="0" />
      <path
         transform="matrix(0.55704218,0,0,0.55704218,2.3730043,3.0502861)"
         d="m 30.053,12.062 c 0.77547,-0.59608 2.8374,0.37028 4.691,2.2138 1.8492,1.8391 2.7785,3.8524 2.1948,4.6347 -0.0022,0.003 0.04557,0.04013 0.04332,0.04308 l 0.35041,-0.35199 c 0.0023,-0.003 -0.04552,-0.04009 -0.04331,-0.04308 0.58363,-0.78227 -0.34565,-2.7955 -2.1948,-4.6347 -1.8536,-1.8435 -3.9156,-2.8099 -4.691,-2.2138 L 30.05301,12.062 z"
         style="fill:url(#linearGradient4888);filter:url(#filter4638)"
         id="path3233"
         inkscape:connector-curvature="0" />
      <path
         transform="matrix(0.55704218,0,0,0.55704218,2.3730043,3.0502861)"
         d="m 29.732,12.385 c 0.77547,-0.59608 2.8374,0.37028 4.691,2.2138 1.8492,1.8391 2.7785,3.8524 2.1948,4.6347 -0.0022,0.003 0.04557,0.04013 0.04331,0.04308 l 0.35041,-0.35199 c 0.0023,-0.003 -0.04554,-0.04009 -0.04331,-0.04308 0.58363,-0.78227 -0.34565,-2.7955 -2.1948,-4.6347 -1.8536,-1.8435 -3.9156,-2.8099 -4.691,-2.2138 L 29.732,12.385 z"
         style="fill:url(#linearGradient4890);filter:url(#filter4638)"
         id="path3216"
         inkscape:connector-curvature="0" />
      <path
         transform="matrix(0.55704218,0,0,0.55704218,2.3730043,3.0502861)"
         d="m 31.169,10.941 c 0.77547,-0.59607 2.8374,0.37028 4.691,2.2138 1.8492,1.8391 2.7785,3.8524 2.1948,4.6347 -0.0022,0.003 0.04557,0.04013 0.04331,0.04308 l 0.35041,-0.35199 c 0.0023,-0.003 -0.04552,-0.04009 -0.04331,-0.04308 0.58363,-0.78227 -0.34565,-2.7955 -2.1948,-4.6347 -1.8536,-1.8436 -3.9156,-2.8099 -4.691,-2.2138 L 31.169,10.941 z"
         style="fill:url(#linearGradient4892);filter:url(#filter4638)"
         id="path3248"
         inkscape:connector-curvature="0" />
      <path
         transform="matrix(0.55704218,0,0,0.55704218,2.3730043,3.0502861)"
         d="m 30.848,11.264 c 0.77547,-0.59608 2.8374,0.37028 4.691,2.2138 1.8492,1.8391 2.7785,3.8524 2.1948,4.6347 -0.0022,0.003 0.04557,0.04012 0.04331,0.04308 l 0.35041,-0.35199 c 0.0023,-0.003 -0.04552,-0.04009 -0.04331,-0.04308 0.58363,-0.78227 -0.34565,-2.7955 -2.1948,-4.6347 -1.8536,-1.8436 -3.9156,-2.8099 -4.691,-2.2138 L 30.848,11.264 z"
         style="fill:url(#linearGradient4894);filter:url(#filter4638)"
         id="path3250"
         inkscape:connector-curvature="0" />
      <path
         transform="matrix(0.55704218,0,0,0.55704218,2.3730043,3.0502861)"
         d="m 32.29,9.8147 c 0.77547,-0.59607 2.8374,0.37028 4.691,2.2138 1.8492,1.8391 2.7785,3.8524 2.1948,4.6347 -0.0022,0.003 0.04557,0.04013 0.04331,0.04308 l 0.35041,-0.35199 c 0.0023,-0.003 -0.04552,-0.0401 -0.04331,-0.04308 0.58363,-0.78227 -0.34565,-2.7955 -2.1948,-4.6347 -1.853,-1.843 -3.915,-2.8094 -4.691,-2.2133 L 32.29,9.8152 z"
         style="fill:url(#linearGradient4896);filter:url(#filter4638)"
         id="path3256"
         inkscape:connector-curvature="0" />
      <path
         transform="matrix(0.55704218,0,0,0.55704218,2.3730043,3.0502861)"
         d="m 31.969,10.137 c 0.77547,-0.59608 2.8374,0.37028 4.691,2.2138 1.8492,1.8391 2.7785,3.8524 2.1948,4.6347 -0.0022,0.003 0.04557,0.04013 0.04331,0.04308 l 0.35041,-0.35199 c 0.0023,-0.003 -0.04553,-0.0401 -0.04331,-0.04308 0.58363,-0.78227 -0.34565,-2.7955 -2.1948,-4.6347 -1.8536,-1.8436 -3.9156,-2.8099 -4.691,-2.2138 l -0.35,0.3516 z"
         style="fill:url(#linearGradient4898);filter:url(#filter4638)"
         id="path3258"
         inkscape:connector-curvature="0" />
      <path
         transform="matrix(0.55704218,0,0,0.55704218,2.3730043,3.0502861)"
         d="m 3.5002,45.5 12.594,-5.443 c 0.584,-0.782 -0.358,-2.995 -2.208,-4.834 -1.853,-1.844 -4.0125,-2.804 -4.788,-2.208 L 3.5004,45.5 z"
         style="fill:url(#linearGradient4900);fill-rule:evenodd;stroke:url(#linearGradient4902);filter:url(#filter4638)"
         id="path3270-7"
         inkscape:connector-curvature="0" />
      <path
         transform="matrix(0.55704218,0,0,0.55704218,2.3730043,3.0502861)"
         d="M 5.0434,42.118 3.5,45.487 6.9057,43.971 C 6.6513,43.661 6.4178,43.345 6.1096,43.039 5.7548,42.686 5.403,42.402 5.0434,42.118 z"
         style="fill:#999999;fill-rule:evenodd;stroke:#999999;filter:url(#filter4638)"
         id="path3281"
         inkscape:connector-curvature="0" />
    </g>
  </g>
</svg>
