<?xml version="1.0" encoding="UTF-8" standalone="no"?>
<!-- Created with Inkscape (http://www.inkscape.org/) -->

<svg
   xmlns:dc="http://purl.org/dc/elements/1.1/"
   xmlns:cc="http://creativecommons.org/ns#"
   xmlns:rdf="http://www.w3.org/1999/02/22-rdf-syntax-ns#"
   xmlns:svg="http://www.w3.org/2000/svg"
   xmlns="http://www.w3.org/2000/svg"
   xmlns:xlink="http://www.w3.org/1999/xlink"
   xmlns:sodipodi="http://sodipodi.sourceforge.net/DTD/sodipodi-0.dtd"
   xmlns:inkscape="http://www.inkscape.org/namespaces/inkscape"
   id="svg3275"
   height="32"
   width="32"
   version="1.0"
   inkscape:version="0.48.3.1 r9886"
   sodipodi:docname="icons.svg"
   enable-background="new">
  <metadata
     id="metadata19">
    <rdf:RDF>
      <cc:Work
         rdf:about="">
        <dc:format>image/svg+xml</dc:format>
        <dc:type
           rdf:resource="http://purl.org/dc/dcmitype/StillImage" />
        <dc:title></dc:title>
      </cc:Work>
    </rdf:RDF>
  </metadata>
  <sodipodi:namedview
     pagecolor="#ffffff"
     bordercolor="#666666"
     borderopacity="1"
     objecttolerance="10"
     gridtolerance="10"
     guidetolerance="10"
     inkscape:pageopacity="0"
     inkscape:pageshadow="2"
     inkscape:window-width="1626"
     inkscape:window-height="1026"
     id="namedview17"
     showgrid="false"
     inkscape:zoom="19.666667"
     inkscape:cx="14.557108"
     inkscape:cy="11.201577"
     inkscape:window-x="1334"
     inkscape:window-y="24"
     inkscape:window-maximized="1"
     inkscape:current-layer="layer4"
     width="372.05px" />
  <defs
     id="defs3277">
    <radialGradient
       id="radialGradient2469"
       gradientUnits="userSpaceOnUse"
       cy="4.625"
       cx="62.625"
       gradientTransform="matrix(2.1647,0,0,0.75294,-111.56,36.518)"
       r="10.625">
      <stop
         id="stop8840"
         offset="0" />
      <stop
         id="stop8842"
         style="stop-opacity:0"
         offset="1" />
    </radialGradient>
    <linearGradient
       id="linearGradient2452"
       y2="34.224998"
       gradientUnits="userSpaceOnUse"
       x2="24.104"
       gradientTransform="matrix(1.8451,0,0,1.834,-20.057,-17.214)"
       y1="15.181"
       x1="24.104">
      <stop
         id="stop2266"
         style="stop-color:#d7e866"
         offset="0" />
      <stop
         id="stop2268"
         style="stop-color:#8cab2a"
         offset="1" />
    </linearGradient>
    <linearGradient
       id="linearGradient3269"
       y2="45"
       gradientUnits="userSpaceOnUse"
       x2="24"
       y1="5"
       x1="24">
      <stop
         id="stop3261"
         style="stop-color:#fff"
         offset="0" />
      <stop
         id="stop3263"
         style="stop-color:#fff;stop-opacity:0"
         offset="1" />
    </linearGradient>
    <filter
       id="filter2996"
       inkscape:label="Desaturate"
       x="0"
       y="0"
       width="1"
       height="1"
       inkscape:menu="Color"
       inkscape:menu-tooltip="Render in shades of gray by reducing saturation to zero"
       color-interpolation-filters="sRGB">
      <feColorMatrix
         id="feColorMatrix2998"
         type="saturate"
         values="0" />
    </filter>
    <filter
       id="filter2996-7"
       inkscape:label="Desaturate"
       x="0"
       y="0"
       width="1"
       height="1"
       inkscape:menu="Color"
       inkscape:menu-tooltip="Render in shades of gray by reducing saturation to zero"
       color-interpolation-filters="sRGB">
      <feColorMatrix
         id="feColorMatrix2998-8"
         type="saturate"
         values="0" />
    </filter>
    <radialGradient
       id="radialGradient2469-0"
       gradientUnits="userSpaceOnUse"
       cy="4.625"
       cx="62.625"
       gradientTransform="matrix(2.1647,0,0,0.75294,-111.56,36.518)"
       r="10.625">
      <stop
         id="stop8840-6"
         offset="0" />
      <stop
         id="stop8842-8"
         style="stop-opacity:0"
         offset="1" />
    </radialGradient>
    <linearGradient
       id="linearGradient2452-7"
       y2="34.224998"
       gradientUnits="userSpaceOnUse"
       x2="24.104"
       gradientTransform="matrix(1.8451,0,0,1.834,-20.057,-17.214)"
       y1="15.181"
       x1="24.104">
      <stop
         id="stop2266-5"
         style="stop-color:#d7e866"
         offset="0" />
      <stop
         id="stop2268-5"
         style="stop-color:#8cab2a"
         offset="1" />
    </linearGradient>
    <linearGradient
       id="linearGradient3269-4"
       y2="45"
       gradientUnits="userSpaceOnUse"
       x2="24"
       y1="5"
       x1="24">
      <stop
         id="stop3261-9"
         style="stop-color:#fff"
         offset="0" />
      <stop
         id="stop3263-2"
         style="stop-color:#fff;stop-opacity:0"
         offset="1" />
    </linearGradient>
    <linearGradient
       y2="45"
       x2="24"
       y1="5"
       x1="24"
       gradientUnits="userSpaceOnUse"
       id="linearGradient3045"
       xlink:href="#linearGradient3269-4"
       inkscape:collect="always" />
    <linearGradient
       x1="24.481"
       y1="5.0809"
       x2="24.481"
       gradientUnits="userSpaceOnUse"
       y2="45.074"
       id="linearGradient2742">
      <stop
         offset="0"
         style="stop-color:#fff"
         id="stop3783" />
      <stop
         offset="1"
         style="stop-color:#fff;stop-opacity:0"
         id="stop3785" />
    </linearGradient>
    <linearGradient
       x1="63.397"
       y1="-12.489"
       gradientTransform="matrix(2.1154,0,0,2.1153,-107.58,32.427)"
       x2="63.397"
       gradientUnits="userSpaceOnUse"
       y2="5.4676"
       id="linearGradient2745">
      <stop
         offset="0"
         style="stop-color:#fff"
         id="stop4875" />
      <stop
         offset="1"
         style="stop-color:#fff;stop-opacity:0"
         id="stop4877" />
    </linearGradient>
    <radialGradient
       r="20.397"
       gradientTransform="matrix(0,2.2875,-3.0194,0,36.047,-50.63)"
       cx="23.896"
       cy="3.99"
       gradientUnits="userSpaceOnUse"
       id="radialGradient2748">
      <stop
         offset="0"
         style="stop-color:#ffd87e;stop-opacity:1;"
         id="stop3244" />
      <stop
         offset="0.26238"
         style="stop-color:#e7704f;stop-opacity:1;"
         id="stop3246" />
      <stop
         offset="0.66093999"
         style="stop-color:#c6912e;stop-opacity:1;"
         id="stop3248" />
      <stop
         offset="1"
         style="stop-color:#472f35;stop-opacity:1;"
         id="stop3250" />
    </radialGradient>
    <linearGradient
       x1="18.379"
       y1="44.98"
       gradientTransform="matrix(0.95844,0,0,0.95844,0.99751999,1.9975)"
       x2="18.379"
       gradientUnits="userSpaceOnUse"
       y2="3.0816"
       id="linearGradient2750">
      <stop
         offset="0"
         style="stop-color:#791235"
         id="stop2492" />
      <stop
         offset="1"
         style="stop-color:#dd3b27"
         id="stop2494" />
    </linearGradient>
    <radialGradient
       r="10.625"
       gradientTransform="matrix(2.1647,0,0,0.75294,-111.56,36.518)"
       cx="62.625"
       cy="4.625"
       gradientUnits="userSpaceOnUse"
       id="radialGradient2436">
      <stop
         offset="0"
         id="stop8840-7" />
      <stop
         offset="1"
         style="stop-opacity:0"
         id="stop8842-4" />
    </radialGradient>
    <filter
       id="filter3217"
       inkscape:label="Desaturate"
       x="0"
       y="0"
       width="1"
       height="1"
       inkscape:menu="Color"
       inkscape:menu-tooltip="Render in shades of gray by reducing saturation to zero"
       color-interpolation-filters="sRGB">
      <feColorMatrix
         id="feColorMatrix3219"
         type="saturate"
         values="0" />
    </filter>
    <filter
       id="filter3217-8"
       inkscape:label="Desaturate"
       x="0"
       y="0"
       width="1"
       height="1"
       inkscape:menu="Color"
       inkscape:menu-tooltip="Render in shades of gray by reducing saturation to zero"
       color-interpolation-filters="sRGB">
      <feColorMatrix
         id="feColorMatrix3219-4"
         type="saturate"
         values="0" />
    </filter>
    <radialGradient
       r="10.625"
       gradientTransform="matrix(2.1647,0,0,0.75294,-111.56,36.518)"
       cx="62.625"
       cy="4.625"
       gradientUnits="userSpaceOnUse"
       id="radialGradient2436-9">
      <stop
         offset="0"
         id="stop8840-7-6" />
      <stop
         offset="1"
         style="stop-opacity:0"
         id="stop8842-4-6" />
    </radialGradient>
    <radialGradient
       r="20.396999"
       gradientTransform="matrix(0,2.2875,-3.0194,0,36.047,-50.63)"
       cx="23.896"
       cy="3.99"
       gradientUnits="userSpaceOnUse"
       id="radialGradient2748-7">
      <stop
         offset="0"
         style="stop-color:#f8b17e"
         id="stop3244-4" />
      <stop
         offset=".26238"
         style="stop-color:#e35d4f"
         id="stop3246-9" />
      <stop
         offset=".66094"
         style="stop-color:#c6262e"
         id="stop3248-4" />
      <stop
         offset="1"
         style="stop-color:#690b54"
         id="stop3250-7" />
    </radialGradient>
    <linearGradient
       x1="18.379"
       y1="44.98"
       gradientTransform="matrix(0.95844,0,0,0.95844,0.99752,1.9975)"
       x2="18.379"
       gradientUnits="userSpaceOnUse"
       y2="3.0816"
       id="linearGradient2750-9">
      <stop
         offset="0"
         style="stop-color:#791235"
         id="stop2492-2" />
      <stop
         offset="1"
         style="stop-color:#dd3b27"
         id="stop2494-4" />
    </linearGradient>
    <linearGradient
       x1="63.396999"
       y1="-12.489"
       gradientTransform="matrix(2.1154,0,0,2.1153,-107.58,32.427)"
       x2="63.396999"
       gradientUnits="userSpaceOnUse"
       y2="5.4675999"
       id="linearGradient2745-8">
      <stop
         offset="0"
         style="stop-color:#fff"
         id="stop4875-4" />
      <stop
         offset="1"
         style="stop-color:#fff;stop-opacity:0"
         id="stop4877-5" />
    </linearGradient>
    <linearGradient
       x1="24.481001"
       y1="5.0809002"
       x2="24.481001"
       gradientUnits="userSpaceOnUse"
       y2="45.074001"
       id="linearGradient2742-8">
      <stop
         offset="0"
         style="stop-color:#fff"
         id="stop3783-2" />
      <stop
         offset="1"
         style="stop-color:#fff;stop-opacity:0"
         id="stop3785-8" />
    </linearGradient>
    <filter
       x="-.059978"
       y="-.24035"
       color-interpolation-filters="sRGB"
       width="1.12"
       height="1.4807"
       id="filter3699">
      <feGaussianBlur
         stdDeviation="1.0014601"
         id="feGaussianBlur3701" />
    </filter>
    <linearGradient
       x1="23.576"
       y1="25.357"
       gradientTransform="matrix(1.1539,-1.1591,1.1841,1.1777,-33.698,16.09)"
       x2="23.576"
       gradientUnits="userSpaceOnUse"
       y2="31.211"
       id="linearGradient2888">
      <stop
         offset="0"
         id="stop3157" />
      <stop
         offset=".13483"
         style="stop-color:#c3c3c3"
         id="stop3171" />
      <stop
         offset=".20224"
         style="stop-color:#8c8c8c"
         id="stop3173" />
      <stop
         offset=".26966"
         style="stop-color:#fff"
         id="stop3163" />
      <stop
         offset=".44650"
         style="stop-color:#757575"
         id="stop3165" />
      <stop
         offset=".57114"
         style="stop-color:#7d7d7d"
         id="stop3167" />
      <stop
         offset=".72038"
         style="stop-color:#b6b6b6"
         id="stop3169" />
      <stop
         offset="1"
         id="stop3159" />
    </linearGradient>
    <linearGradient
       x1="30.038"
       y1="24.99"
       gradientTransform="matrix(1.1213,-1.1264,1.3858,1.3783,-37.505,10.578)"
       x2="30.038"
       gradientUnits="userSpaceOnUse"
       xlink:href="#linearGradient3240"
       y2="30"
       id="linearGradient2883" />
    <linearGradient
       x1="30.038"
       y1="24.99"
       gradientTransform="matrix(1.1213,-1.1264,1.3858,1.3783,-37.826,10.9)"
       x2="30.038"
       gradientUnits="userSpaceOnUse"
       xlink:href="#linearGradient3223"
       y2="30"
       id="linearGradient2880" />
    <linearGradient
       x1="30.038"
       y1="24.99"
       gradientTransform="matrix(1.1213,-1.1264,1.3858,1.3783,-36.389,9.4567)"
       x2="30.038"
       gradientUnits="userSpaceOnUse"
       xlink:href="#linearGradient3240"
       y2="30"
       id="linearGradient2877" />
    <linearGradient
       x1="30.038"
       y1="24.99"
       gradientTransform="matrix(1.1213,-1.1264,1.3858,1.3783,-36.71,9.7792)"
       x2="30.038"
       gradientUnits="userSpaceOnUse"
       xlink:href="#linearGradient3223"
       y2="30"
       id="linearGradient2874" />
    <linearGradient
       x1="30.038"
       y1="24.99"
       gradientTransform="matrix(1.1213,-1.1264,1.3858,1.3783,-35.268,8.3303)"
       x2="30.038"
       gradientUnits="userSpaceOnUse"
       xlink:href="#linearGradient3240"
       y2="30"
       id="linearGradient2871" />
    <linearGradient
       x1="30.038"
       y1="24.99"
       gradientTransform="matrix(1.1213,-1.1264,1.3858,1.3783,-35.589,8.6529)"
       x2="30.038"
       gradientUnits="userSpaceOnUse"
       xlink:href="#linearGradient3223"
       y2="30"
       id="linearGradient2868" />
    <linearGradient
       x1="5.5179"
       y1="37.372"
       gradientTransform="matrix(0.94216,0,0,0.941,1.4258,3.2093)"
       x2="9.5221"
       gradientUnits="userSpaceOnUse"
       y2="41.392"
       id="linearGradient2865">
      <stop
         offset="0"
         style="stop-color:#cbbd27"
         id="stop3193" />
      <stop
         offset="1"
         style="stop-color:#9b901d"
         id="stop3195" />
    </linearGradient>
    <linearGradient
       x1="9"
       y1="29.057"
       gradientTransform="matrix(1.1213,-1.1264,1.3858,1.3783,-37.931,11.005)"
       x2="9"
       gradientUnits="userSpaceOnUse"
       y2="26.03"
       id="linearGradient2863">
      <stop
         offset="0"
         style="stop-color:#e4db7b"
         id="stop3292" />
      <stop
         offset="1"
         style="stop-color:#f4f0c8"
         id="stop3294" />
    </linearGradient>
    <linearGradient
       id="linearGradient3223">
      <stop
         offset="0"
         style="stop-color:#999"
         id="stop3225" />
      <stop
         offset=".5"
         style="stop-color:#fff"
         id="stop3231" />
      <stop
         offset="1"
         style="stop-color:#777"
         id="stop3227" />
    </linearGradient>
    <linearGradient
       id="linearGradient3240">
      <stop
         offset="0"
         style="stop-color:#3e3e3e"
         id="stop3242" />
      <stop
         offset=".5"
         style="stop-color:#828282"
         id="stop3244-9" />
      <stop
         offset="1"
         style="stop-color:#3c3c3c"
         id="stop3246-6" />
    </linearGradient>
    <filter
       id="filter4638"
       inkscape:label="Desaturate"
       x="0"
       y="0"
       width="1"
       height="1"
       inkscape:menu="Color"
       inkscape:menu-tooltip="Render in shades of gray by reducing saturation to zero"
       color-interpolation-filters="sRGB">
      <feColorMatrix
         id="feColorMatrix4640"
         type="saturate"
         values="0" />
    </filter>
    <linearGradient
       inkscape:collect="always"
       xlink:href="#linearGradient2888"
       id="linearGradient4886"
       gradientUnits="userSpaceOnUse"
       gradientTransform="matrix(1.1539,-1.1591,1.1841,1.1777,-33.698,16.09)"
       x1="23.576"
       y1="25.357"
       x2="23.576"
       y2="31.211" />
    <linearGradient
       inkscape:collect="always"
       xlink:href="#linearGradient3240"
       id="linearGradient4888"
       gradientUnits="userSpaceOnUse"
       gradientTransform="matrix(1.1213,-1.1264,1.3858,1.3783,-37.505,10.578)"
       x1="30.038"
       y1="24.99"
       x2="30.038"
       y2="30" />
    <linearGradient
       inkscape:collect="always"
       xlink:href="#linearGradient3223"
       id="linearGradient4890"
       gradientUnits="userSpaceOnUse"
       gradientTransform="matrix(1.1213,-1.1264,1.3858,1.3783,-37.826,10.9)"
       x1="30.038"
       y1="24.99"
       x2="30.038"
       y2="30" />
    <linearGradient
       inkscape:collect="always"
       xlink:href="#linearGradient3240"
       id="linearGradient4892"
       gradientUnits="userSpaceOnUse"
       gradientTransform="matrix(1.1213,-1.1264,1.3858,1.3783,-36.389,9.4567)"
       x1="30.038"
       y1="24.99"
       x2="30.038"
       y2="30" />
    <linearGradient
       inkscape:collect="always"
       xlink:href="#linearGradient3223"
       id="linearGradient4894"
       gradientUnits="userSpaceOnUse"
       gradientTransform="matrix(1.1213,-1.1264,1.3858,1.3783,-36.71,9.7792)"
       x1="30.038"
       y1="24.99"
       x2="30.038"
       y2="30" />
    <linearGradient
       inkscape:collect="always"
       xlink:href="#linearGradient3240"
       id="linearGradient4896"
       gradientUnits="userSpaceOnUse"
       gradientTransform="matrix(1.1213,-1.1264,1.3858,1.3783,-35.268,8.3303)"
       x1="30.038"
       y1="24.99"
       x2="30.038"
       y2="30" />
    <linearGradient
       inkscape:collect="always"
       xlink:href="#linearGradient3223"
       id="linearGradient4898"
       gradientUnits="userSpaceOnUse"
       gradientTransform="matrix(1.1213,-1.1264,1.3858,1.3783,-35.589,8.6529)"
       x1="30.038"
       y1="24.99"
       x2="30.038"
       y2="30" />
    <linearGradient
       inkscape:collect="always"
       xlink:href="#linearGradient2863"
       id="linearGradient4900"
       gradientUnits="userSpaceOnUse"
       gradientTransform="matrix(1.1213,-1.1264,1.3858,1.3783,-37.931,11.005)"
       x1="9"
       y1="29.057"
       x2="9"
       y2="26.03" />
    <linearGradient
       inkscape:collect="always"
       xlink:href="#linearGradient2865"
       id="linearGradient4902"
       gradientUnits="userSpaceOnUse"
       gradientTransform="matrix(0.94216,0,0,0.941,1.4258,3.2093)"
       x1="5.5179"
       y1="37.372"
       x2="9.5221"
       y2="41.392" />
    <radialGradient
       r="2"
       gradientTransform="matrix(0.80803,-0.026108,0.0094357,1.3974,4.7598,-7.9089)"
       cx="25.977"
       cy="21.623"
       gradientUnits="userSpaceOnUse"
       xlink:href="#linearGradient6221"
       id="radialGradient5017" />
    <linearGradient
       x1="-45.569"
       y1="7.714"
       gradientTransform="matrix(1.0469,0,0,1.0469,8.9937,-0.0061874)"
       x2="-36.083"
       gradientUnits="userSpaceOnUse"
       y2="12.324"
       id="linearGradient5009">
      <stop
         offset="0"
         style="stop-color:#bb5e12"
         id="stop4095" />
      <stop
         offset="1"
         style="stop-color:#cd8033"
         id="stop4097" />
    </linearGradient>
    <linearGradient
       x1="-2.1966"
       y1="40.972"
       gradientTransform="matrix(0.84492,-2.9977e-8,0,1.6837,-27.13,-57.123)"
       x2="-10.566"
       gradientUnits="userSpaceOnUse"
       y2="40.949"
       id="linearGradient5007">
      <stop
         offset="0"
         style="stop-color:#edd563"
         id="stop4101" />
      <stop
         offset="1"
         style="stop-color:#e08223"
         id="stop4103" />
    </linearGradient>
    <radialGradient
       r="3.906"
       gradientTransform="matrix(2.3534,-0.16337,0.28682,5.9726,59.065,-65.367)"
       cx="-39.458"
       cy="11.84"
       gradientUnits="userSpaceOnUse"
       xlink:href="#linearGradient5443"
       id="radialGradient5004" />
    <linearGradient
       x1="22.376"
       y1="35.624"
       gradientTransform="matrix(1.0469,0,0,1.0469,-6.3987,-6.3201)"
       x2="31.089"
       gradientUnits="userSpaceOnUse"
       xlink:href="#linearGradient7444"
       y2="26.885"
       id="linearGradient5001" />
    <linearGradient
       x1="25.572"
       y1="20.762"
       gradientTransform="matrix(-1.0424,0,0,-1.0378,44.501,53.476)"
       x2="27.368"
       gradientUnits="userSpaceOnUse"
       xlink:href="#linearGradient7381"
       y2="22.476"
       id="linearGradient4999" />
    <linearGradient
       x1="-10.939"
       y1="36.912"
       gradientTransform="matrix(0.60312,0,0,1.4586,-31.405,-44.247)"
       x2="-6.9301"
       gradientUnits="userSpaceOnUse"
       xlink:href="#linearGradient6221"
       y2="36.892"
       id="linearGradient4996" />
    <linearGradient
       x1="-7.0974"
       y1="40.324"
       gradientTransform="matrix(0.5048,0,0,1.42,-29.912,-41.903)"
       x2="-10.179"
       gradientUnits="userSpaceOnUse"
       xlink:href="#linearGradient6221"
       y2="40.309"
       id="linearGradient4993" />
    <linearGradient
       x1="58.548"
       y1="37.501"
       gradientTransform="matrix(1.0367,0,0,2.1489,-91.059,-66.824)"
       x2="56.447"
       gradientUnits="userSpaceOnUse"
       xlink:href="#linearGradient5443"
       y2="37.586"
       id="linearGradient4990" />
    <linearGradient
       x1="54.765"
       y1="1"
       gradientTransform="matrix(-0.7322,-0.73386,0.7322,-0.73386,43.537,85.236)"
       x2="54.721"
       gradientUnits="userSpaceOnUse"
       xlink:href="#linearGradient5443"
       y2="12.585"
       id="linearGradient4987" />
    <linearGradient
       x1="29.278"
       y1="34.023"
       x2="36.001"
       gradientUnits="userSpaceOnUse"
       y2="27.273"
       id="linearGradient4972">
      <stop
         offset="0"
         style="stop-color:#791235"
         id="stop2492-9" />
      <stop
         offset="1"
         style="stop-color:#dd3b27"
         id="stop2494-0" />
    </linearGradient>
    <linearGradient
       x1="326.6"
       y1="75.575"
       gradientTransform="matrix(1.363,0,0,1.3617,-403.82,-67.958)"
       x2="317.16"
       gradientUnits="userSpaceOnUse"
       y2="88.006"
       id="linearGradient4758">
      <stop
         offset="0"
         style="stop-color:#fff"
         id="stop7423" />
      <stop
         offset="1"
         style="stop-color:#fff;stop-opacity:0"
         id="stop7425" />
    </linearGradient>
    <linearGradient
       x1="324.5"
       y1="70.282"
       gradientTransform="matrix(1.363,0,0,1.3617,-403.82,-67.958)"
       x2="330.06"
       gradientUnits="userSpaceOnUse"
       xlink:href="#linearGradient7444"
       y2="99.274"
       id="linearGradient4739" />
    <linearGradient
       x1="304.76"
       y1="64.295"
       gradientTransform="matrix(1.363,0,0,1.3617,-403.82,-67.958)"
       x2="335.3"
       gradientUnits="userSpaceOnUse"
       y2="81.926"
       id="linearGradient4737">
      <stop
         offset="0"
         style="stop-color:#d3d7cf"
         id="stop4436" />
      <stop
         offset=".18304"
         style="stop-color:#babdb6"
         id="stop4438" />
      <stop
         offset=".31893"
         style="stop-color:#fff"
         id="stop4440" />
      <stop
         offset=".87644"
         style="stop-color:#babdb6"
         id="stop4442" />
      <stop
         offset="1"
         style="stop-color:#eeeeec"
         id="stop4444" />
    </linearGradient>
    <linearGradient
       x1="302.29"
       y1="58.443"
       gradientTransform="matrix(1.363,0,0,1.3617,-403.82,-67.958)"
       x2="308.65"
       gradientUnits="userSpaceOnUse"
       xlink:href="#linearGradient7381"
       y2="60.768"
       id="linearGradient4734" />
    <linearGradient
       x1="97.442"
       y1="35.152"
       gradientTransform="matrix(0.82274,-0.82219,0.71961,0.71912,-72.103,81.547)"
       x2="90.221"
       gradientUnits="userSpaceOnUse"
       y2="35.079"
       id="linearGradient4668">
      <stop
         offset="0"
         style="stop-color:#f8b17e"
         id="stop4958" />
      <stop
         offset=".26238"
         style="stop-color:#e35d4f"
         id="stop4960" />
      <stop
         offset=".66347"
         style="stop-color:#c6262e"
         id="stop4962" />
      <stop
         offset="1"
         style="stop-color:#690b54"
         id="stop4964" />
    </linearGradient>
    <linearGradient
       x1="-6.3078"
       y1="44.229"
       gradientTransform="matrix(0.50045,-0.49965,0.84917,0.84785,-0.11121,-9.0097)"
       x2="-9.7747"
       gradientUnits="userSpaceOnUse"
       xlink:href="#linearGradient6221"
       y2="44.14"
       id="linearGradient4665" />
    <linearGradient
       id="linearGradient7381">
      <stop
         offset="0"
         style="stop-color:#babdb6"
         id="stop7383" />
      <stop
         offset="1"
         style="stop-color:#fff"
         id="stop7385" />
    </linearGradient>
    <linearGradient
       id="linearGradient7444">
      <stop
         offset="0"
         style="stop-color:#888a85"
         id="stop7446" />
      <stop
         offset="1"
         style="stop-color:#555753"
         id="stop7448" />
    </linearGradient>
    <radialGradient
       r="12.728"
       gradientTransform="matrix(0.46337,0,0,0.19993,-4.0736,37.642)"
       cx="21.96"
       cy="34.498"
       gradientUnits="userSpaceOnUse"
       xlink:href="#linearGradient6221"
       id="radialGradient2921" />
    <radialGradient
       r="12.728"
       gradientTransform="matrix(0.18132,0,0,0.075498,1.8335,42.277)"
       cx="21.96"
       cy="34.498"
       gradientUnits="userSpaceOnUse"
       xlink:href="#linearGradient6221"
       id="radialGradient2918" />
    <radialGradient
       r="12.728"
       gradientTransform="matrix(0.57921,0,0,0.23992,27.908,35.77)"
       cx="21.96"
       cy="34.498"
       gradientUnits="userSpaceOnUse"
       xlink:href="#linearGradient6221"
       id="radialGradient2915" />
    <radialGradient
       r="12.728"
       gradientTransform="matrix(0.23695,0,0,0.090597,35.69,41.291)"
       cx="21.96"
       cy="34.498"
       gradientUnits="userSpaceOnUse"
       xlink:href="#linearGradient6221"
       id="radialGradient2912" />
    <linearGradient
       id="linearGradient5443">
      <stop
         offset="0"
         style="stop-color:#fff"
         id="stop5445" />
      <stop
         offset="1"
         style="stop-color:#fff;stop-opacity:0"
         id="stop5447" />
    </linearGradient>
    <linearGradient
       id="linearGradient6221">
      <stop
         offset="0"
         id="stop6223" />
      <stop
         offset="1"
         style="stop-opacity:0"
         id="stop6225" />
    </linearGradient>
    <filter
       id="filter3516"
       inkscape:label="Desaturate"
       x="0"
       y="0"
       width="1"
       height="1"
       inkscape:menu="Color"
       inkscape:menu-tooltip="Render in shades of gray by reducing saturation to zero"
       color-interpolation-filters="sRGB">
      <feColorMatrix
         id="feColorMatrix3518"
         type="saturate"
         values="0" />
    </filter>
  </defs>
  <g
     inkscape:groupmode="layer"
     id="layer2"
     inkscape:label="Add"
     style="display:none"
     sodipodi:insensitive="true">
    <g
       id="layer1"
       style="filter:url(#filter2996-7)"
       transform="matrix(0.54347826,0,0,0.54347826,2.4141486,3.7928087)">
      <path
         id="path8836"
         style="opacity:0.3;fill:url(#radialGradient2469-0);fill-rule:evenodd"
         d="m 47,40 c 0,4.4183 -10.297,8 -23,8 -12.703,0 -23,-3.5817 -23,-8 0,-4.4183 10.297,-8 23,-8 12.703,0 23,3.5817 23,8 z"
         inkscape:connector-curvature="0" />
      <path
         id="path2262"
         style="fill:url(#linearGradient2452-7);fill-rule:evenodd;stroke:#699536;stroke-linejoin:round"
         d="m 17.5,18.5 v -13 h 13 v 13 h 13 v 13 h -13 v 13 h -13 v -13 h -13 v -13 h 13 z"
         inkscape:connector-curvature="0" />
      <path
         id="path3267"
         style="opacity:0.4;fill:none;stroke:url(#linearGradient3045)"
         d="m 18.5,6.5 v 12 c -0.0071,0.54933 -0.45067,0.99294 -1,1 h -12 v 11 h 12 c 0.54933,0.0071 0.99294,0.45067 1,1 v 12 h 11 v -12 c 0.0071,-0.54933 0.45067,-0.99294 1,-1 h 12 v -11 h -12 c -0.54933,-0.0071 -0.99294,-0.45067 -1,-1 v -12 h -11 z"
         inkscape:connector-curvature="0" />
    </g>
  </g>
  <g
     inkscape:groupmode="layer"
     id="layer3"
     inkscape:label="Delete"
     style="display:none"
     sodipodi:insensitive="true">
    <g
       id="layer1-8"
       transform="matrix(0.54347826,0,0,0.54347826,2.4141484,3.7673312)"
       style="filter:url(#filter3217)">
      <g
         id="g4449">
        <path
           inkscape:connector-curvature="0"
           id="path8836-1"
           style="opacity:0.3;fill:url(#radialGradient2436);fill-rule:evenodd"
           d="m 47,40 c 0,4.418 -10.297,8 -23,8 -12.703,0 -23,-3.582 -23,-8 0,-4.418 10.297,-8 23,-8 12.703,0 23,3.582 23,8 z" />
        <path
           inkscape:connector-curvature="0"
           id="path2555"
           style="fill:url(#radialGradient2748);stroke:url(#linearGradient2750);stroke-width:1.00370002;stroke-linecap:round;stroke-linejoin:round"
           d="m 24,5.5018 c -10.758,0 -19.498,8.7402 -19.498,19.498 -2e-4,10.758 8.74,19.498 19.498,19.498 10.758,0 19.498,-8.74 19.498,-19.498 0,-10.758 -8.74,-19.498 -19.498,-19.498 z m 0,6.2602 c 7.314,0 13.238,5.924 13.238,13.238 0,3.07 -1.063,5.872 -2.815,8.117 L 17.65,13.379 C 19.535,12.348 21.699,11.762 24,11.762 z M 13.397,17.093 30.11,36.741 c -1.828,0.952 -3.905,1.497 -6.11,1.497 -7.314,0 -13.238,-5.924 -13.238,-13.238 0,-2.971 0.984,-5.699 2.635,-7.907 z" />
        <path
           inkscape:connector-curvature="0"
           id="path8655"
           style="opacity:0.4;fill:none;stroke:url(#linearGradient2745)"
           d="M 42.5,24.999 C 42.5,35.217 34.217,43.5 24,43.5 13.783,43.5 5.5,35.217 5.5,24.999 5.5,14.782 13.783,6.5 24,6.5 c 10.217,0 18.5,8.282 18.5,18.499 z" />
        <path
           inkscape:connector-curvature="0"
           id="path3270"
           style="opacity:0.4;fill:none;stroke:url(#linearGradient2742);stroke-width:1px;stroke-linecap:round"
           d="M 17.05,14.239 33.752,33.926" />
      </g>
    </g>
  </g>
  <g
     inkscape:groupmode="layer"
     id="layer6"
     inkscape:label="Edit"
     sodipodi:insensitive="true"
     style="display:none">
    <g
       id="g4872"
       transform="translate(-0.66101695,-0.15254237)">
      <path
         transform="matrix(0.55704218,0,0,0.55704218,2.3730043,3.0502861)"
         d="m 36.746,36.237 c -0.323,-0.0046 -0.58209,0.0365 -0.75667,0.08021 l -23.247,5.802 -4.2794,1.07 -0.1304,0.027 -5.4272,3.021 12.185,-1.3369 0.10437,-0.02674 4.3052,-1.0695 23.248,-5.8287 c 0.69833,-0.17484 -0.24405,-0.68626 -2.1135,-1.1497 -1.4021,-0.34758 -2.9187,-0.57454 -3.8877,-0.58822 z"
         style="opacity:0.15;fill-rule:evenodd;filter:url(#filter3699)"
         id="path2422"
         inkscape:connector-curvature="0" />
      <path
         transform="matrix(0.55704218,0,0,0.55704218,2.3730043,3.0502861)"
         d="m 9.1978,33.011 c 0.77547,-0.59607 2.8374,0.37028 4.691,2.2138 1.8492,1.8391 2.7785,3.8524 2.1948,4.6347 -0.0022,0.003 0.04557,0.04013 0.04331,0.04308 l 28.138,-28.265 c 0.715,-0.718 -0.255,-2.8465 -2.168,-4.7485 -1.912,-1.9021 -4.047,-2.8611 -4.761,-2.1435 l -28.138,28.265 z"
         style="fill:url(#linearGradient4886);stroke:#000000;stroke-linejoin:round;filter:url(#filter4638)"
         id="rect2383"
         inkscape:connector-curvature="0" />
      <path
         transform="matrix(0.55704218,0,0,0.55704218,2.3730043,3.0502861)"
         d="m 33.902,8.1955 c 0.77547,-0.59607 2.8374,0.37028 4.691,2.2138 1.8492,1.8391 2.7785,3.8524 2.1948,4.6347 -0.0022,0.003 0.04557,0.04013 0.04331,0.04308 l 3.4341,-3.4495 0.07008,-0.0704 c 0.0023,-0.003 -0.04553,-0.04009 -0.04331,-0.04307 0.584,-0.782 -0.346,-2.7954 -2.195,-4.6345 -1.854,-1.8436 -3.915,-2.8099 -4.691,-2.2139 l -0.07008,0.070398 -3.4341,3.4495 z"
         style="opacity:0.8;fill:#ff9de8;stroke:#dd78c5;stroke-linejoin:round;filter:url(#filter4638)"
         id="rect3175"
         inkscape:connector-curvature="0" />
      <path
         transform="matrix(0.55704218,0,0,0.55704218,2.3730043,3.0502861)"
         d="m 9.1978,33.011 c 0.77547,-0.59607 2.8374,0.37028 4.691,2.2138 1.8492,1.8391 2.7785,3.8524 2.1948,4.6347 -0.0022,0.003 0.04557,0.04013 0.04331,0.04308 l 19.378,-19.465 0.07008,-0.0704 c 0.0023,-0.003 -0.04552,-0.0401 -0.04331,-0.04308 0.58363,-0.78227 -0.34565,-2.7955 -2.1948,-4.6347 -1.8536,-1.8435 -3.9156,-2.8099 -4.691,-2.2138 L 28.5758,13.546 9.1978,33.011 z"
         style="opacity:0.6;fill:#808080;filter:url(#filter4638)"
         id="path3208"
         inkscape:connector-curvature="0" />
      <path
         transform="matrix(0.55704218,0,0,0.55704218,2.3730043,3.0502861)"
         d="m 30.053,12.062 c 0.77547,-0.59608 2.8374,0.37028 4.691,2.2138 1.8492,1.8391 2.7785,3.8524 2.1948,4.6347 -0.0022,0.003 0.04557,0.04013 0.04332,0.04308 l 0.35041,-0.35199 c 0.0023,-0.003 -0.04552,-0.04009 -0.04331,-0.04308 0.58363,-0.78227 -0.34565,-2.7955 -2.1948,-4.6347 -1.8536,-1.8435 -3.9156,-2.8099 -4.691,-2.2138 L 30.05301,12.062 z"
         style="fill:url(#linearGradient4888);filter:url(#filter4638)"
         id="path3233"
         inkscape:connector-curvature="0" />
      <path
         transform="matrix(0.55704218,0,0,0.55704218,2.3730043,3.0502861)"
         d="m 29.732,12.385 c 0.77547,-0.59608 2.8374,0.37028 4.691,2.2138 1.8492,1.8391 2.7785,3.8524 2.1948,4.6347 -0.0022,0.003 0.04557,0.04013 0.04331,0.04308 l 0.35041,-0.35199 c 0.0023,-0.003 -0.04554,-0.04009 -0.04331,-0.04308 0.58363,-0.78227 -0.34565,-2.7955 -2.1948,-4.6347 -1.8536,-1.8435 -3.9156,-2.8099 -4.691,-2.2138 L 29.732,12.385 z"
         style="fill:url(#linearGradient4890);filter:url(#filter4638)"
         id="path3216"
         inkscape:connector-curvature="0" />
      <path
         transform="matrix(0.55704218,0,0,0.55704218,2.3730043,3.0502861)"
         d="m 31.169,10.941 c 0.77547,-0.59607 2.8374,0.37028 4.691,2.2138 1.8492,1.8391 2.7785,3.8524 2.1948,4.6347 -0.0022,0.003 0.04557,0.04013 0.04331,0.04308 l 0.35041,-0.35199 c 0.0023,-0.003 -0.04552,-0.04009 -0.04331,-0.04308 0.58363,-0.78227 -0.34565,-2.7955 -2.1948,-4.6347 -1.8536,-1.8436 -3.9156,-2.8099 -4.691,-2.2138 L 31.169,10.941 z"
         style="fill:url(#linearGradient4892);filter:url(#filter4638)"
         id="path3248"
         inkscape:connector-curvature="0" />
      <path
         transform="matrix(0.55704218,0,0,0.55704218,2.3730043,3.0502861)"
         d="m 30.848,11.264 c 0.77547,-0.59608 2.8374,0.37028 4.691,2.2138 1.8492,1.8391 2.7785,3.8524 2.1948,4.6347 -0.0022,0.003 0.04557,0.04012 0.04331,0.04308 l 0.35041,-0.35199 c 0.0023,-0.003 -0.04552,-0.04009 -0.04331,-0.04308 0.58363,-0.78227 -0.34565,-2.7955 -2.1948,-4.6347 -1.8536,-1.8436 -3.9156,-2.8099 -4.691,-2.2138 L 30.848,11.264 z"
         style="fill:url(#linearGradient4894);filter:url(#filter4638)"
         id="path3250"
         inkscape:connector-curvature="0" />
      <path
         transform="matrix(0.55704218,0,0,0.55704218,2.3730043,3.0502861)"
         d="m 32.29,9.8147 c 0.77547,-0.59607 2.8374,0.37028 4.691,2.2138 1.8492,1.8391 2.7785,3.8524 2.1948,4.6347 -0.0022,0.003 0.04557,0.04013 0.04331,0.04308 l 0.35041,-0.35199 c 0.0023,-0.003 -0.04552,-0.0401 -0.04331,-0.04308 0.58363,-0.78227 -0.34565,-2.7955 -2.1948,-4.6347 -1.853,-1.843 -3.915,-2.8094 -4.691,-2.2133 L 32.29,9.8152 z"
         style="fill:url(#linearGradient4896);filter:url(#filter4638)"
         id="path3256"
         inkscape:connector-curvature="0" />
      <path
         transform="matrix(0.55704218,0,0,0.55704218,2.3730043,3.0502861)"
         d="m 31.969,10.137 c 0.77547,-0.59608 2.8374,0.37028 4.691,2.2138 1.8492,1.8391 2.7785,3.8524 2.1948,4.6347 -0.0022,0.003 0.04557,0.04013 0.04331,0.04308 l 0.35041,-0.35199 c 0.0023,-0.003 -0.04553,-0.0401 -0.04331,-0.04308 0.58363,-0.78227 -0.34565,-2.7955 -2.1948,-4.6347 -1.8536,-1.8436 -3.9156,-2.8099 -4.691,-2.2138 l -0.35,0.3516 z"
         style="fill:url(#linearGradient4898);filter:url(#filter4638)"
         id="path3258"
         inkscape:connector-curvature="0" />
      <path
         transform="matrix(0.55704218,0,0,0.55704218,2.3730043,3.0502861)"
         d="m 3.5002,45.5 12.594,-5.443 c 0.584,-0.782 -0.358,-2.995 -2.208,-4.834 -1.853,-1.844 -4.0125,-2.804 -4.788,-2.208 L 3.5004,45.5 z"
         style="fill:url(#linearGradient4900);fill-rule:evenodd;stroke:url(#linearGradient4902);filter:url(#filter4638)"
         id="path3270-7"
         inkscape:connector-curvature="0" />
      <path
         transform="matrix(0.55704218,0,0,0.55704218,2.3730043,3.0502861)"
         d="M 5.0434,42.118 3.5,45.487 6.9057,43.971 C 6.6513,43.661 6.4178,43.345 6.1096,43.039 5.7548,42.686 5.403,42.402 5.0434,42.118 z"
         style="fill:#999999;fill-rule:evenodd;stroke:#999999;filter:url(#filter4638)"
         id="path3281"
         inkscape:connector-curvature="0" />
    </g>
  </g>
  <g
     inkscape:groupmode="layer"
     id="layer4"
     inkscape:label="Prefs">
    <g
       id="g3495"
       transform="matrix(0.52082433,0,0,0.52082433,2.449368,4.408799)"
       style="filter:url(#filter3516)">
      <path
         d="M 12.156,2.4375 C 11.992,2.4293 11.828,2.4956 11.719,2.625 11.573,2.7975 11.573,3.0533 11.688,3.25 l 3.062,5.4688 c 0.275,0.49159 0.13073,1.1346 -0.3125,1.7812 -0.44742,0.65277 -1.2037,1.2938 -2.1562,1.8125 -0.9527,0.51876 -1.8911,0.81686 -2.6875,0.84375 C 8.80215,13.18308 8.182,12.96163 7.9063,12.46875 L 4.8125,6.93725 c -0.0859,-0.153 -0.2315,-0.2297 -0.4063,-0.25 -0.1747,-0.0203 -0.3521,0.0268 -0.4687,0.1563 -0.062971,0.067268 -0.10346,0.1605 -0.125,0.25 -0.59308,2.5534 -0.31243,5.489 0.8125,7.5 1.5363,2.7463 4.7419,4.0543 7.875,3.5 1.2803,0.4303 3.4561,1.1778 5.469,3.1752 l 4.15,-4.419 c -1.816,-1.801 -2.664,-3.444 -3.151,-4.662 0.423,-1.686 0.234,-3.4711 -0.657,-5.063 -1.124,-2.0101 -3.468,-3.7895 -5.968,-4.6562 -0.054,-0.0197 -0.133,-0.0286 -0.188,-0.0313 z"
         style="fill:url(#linearGradient4737);fill-rule:evenodd;stroke:url(#linearGradient4739);stroke-linecap:round;stroke-linejoin:round;stroke-dashoffset:0.3612;enable-background:new"
         id="path6912"
         inkscape:connector-curvature="0" />
      <path
         d="m 12.159,2.9347 c 0.02549,0.00953 0.0095,0.042485 0,0.042621 l 3.0668,5.4893 c 0.41372,0.73951 0.11531,1.6129 -0.38335,2.3404 -0.50362,0.73476 -1.284,1.4467 -2.3001,2 -1.0183,0.55451 -2.0864,0.82082 -2.9816,0.85106 -0.89324,0.03023 -1.7317,-0.22456 -2.1297,-0.93616 l -3.0666,-5.5319 c -0.017583,-0.00272 -0.045525,0.00272 -0.042662,0 0.028078,-0.029957 0.00545,0.021787 0,0.042621 -0.56554,2.4349 -0.27222,5.2491 0.7667,7.1063 1.4211,2.5405 4.3881,3.7538 7.3262,3.234 2.9243,-0.52292 5.4248,-3.0681 6.0484,-5.4893 0.39379,-1.5681 0.22603,-3.2533 -0.59632,-4.7234 -1.037,-1.8522 -3.316,-3.5963 -5.709,-4.4255 l 6.9e-5,-1.361e-4 z"
         style="fill:url(#linearGradient4734);fill-rule:evenodd;enable-background:new"
         id="path7379"
         inkscape:connector-curvature="0" />
      <path
         d="m 13.688,4.4688 2.0625,3.6875 c 0.58141,1.0392 0.15947,2.1746 -0.40625,3 -0.57157,0.83389 -1.407,1.561 -2.5,2.1562 -1.0976,0.5977 -2.2353,0.93447 -3.25,0.96875 -1.016,0.03434 -2.1416,-0.27398 -2.6875,-1.25 l -2.1251,-3.8435 c -0.090777,1.7949 0.11702,3.6005 0.8125,4.8438 1.2819,2.2916 3.9852,3.4156 6.6875,2.9375 0.19783,-0.03904 0.40347,-0.0042 0.59375,0.0625 1.4647,0.49226 3.2934,1.4971 5.4062,3.5938 l 1,1 3.0938,-3.0938 -0.96875,-0.96875 c -1.9049,-1.8903 -2.9485,-3.5592 -3.5,-4.9375 -0.083,-0.217 -0.087,-0.433 -0.031,-0.657 0.358,-1.427 0.209,-2.9898 -0.531,-4.3128 -0.677,-1.209 -2.101,-2.3127 -3.656,-3.1874 z"
         style="fill:none;stroke:url(#linearGradient4758);stroke-width:0.69999999;stroke-linecap:round;stroke-dashoffset:0.3612;enable-background:new"
         id="path4756"
         inkscape:connector-curvature="0" />
      <path
         d="m 18.125,16.281 c -0.1369,0.01172 -0.25777,0.0391 -0.34375,0.125 l -0.625,0.65625 c -0.34391,0.34358 -0.09326,1.1887 0.59375,1.875 l 2.125,2.0938 1.875,-1.9062 -2.0938,-2.0938 c -0.51526,-0.51476 -1.1205,-0.78517 -1.5312,-0.75 z"
         style="opacity:0.07999998;fill-rule:evenodd;enable-background:new"
         id="rect7166"
         inkscape:connector-curvature="0" />
      <path
         d="m 12,44.5 a 6,2.5 0 1 1 -12,0 6,2.5 0 1 1 12,0 z"
         style="opacity:0.25;fill:url(#radialGradient2921)"
         id="path5331"
         inkscape:connector-curvature="0" />
      <path
         d="m 8.1231,44.867 a 2.3478,0.94404 0 1 1 -4.6956,0 2.3478,0.94404 0 1 1 4.6956,0 z"
         style="opacity:0.3;fill:url(#radialGradient2918)"
         id="path6769"
         inkscape:connector-curvature="0" />
      <path
         d="m 48,44 a 7.5,3 0 0 1 -15,0 7.5,3 0 1 1 15,0 z"
         style="opacity:0.25;fill:url(#radialGradient2915)"
         id="path6765"
         inkscape:connector-curvature="0" />
      <path
         d="m 43.909,44.399 a 3.0682,1.1329 0 1 1 -6.1363,0 3.0682,1.1329 0 1 1 6.1363,0 z"
         style="opacity:0.3;fill:url(#radialGradient2912)"
         id="path6773"
         inkscape:connector-curvature="0" />
      <path
         d="m 17.528,20.864 21.27,22.696 c 1.3953,1.3944 3.7842,1.2118 5.3795,-0.38238 1.5953,-1.59418 1.778,-3.9815 0.38264,-5.3759 l -22.71,-21.256 -4.322,4.318 z m 22.328,17.995 c 0.79307,-0.79253 2.088,-0.79253 2.8811,0 0.79306,0.79253 0.79306,2.0866 1e-6,2.8791 -0.79307,0.79252 -2.088,0.79253 -2.8811,0 -0.79306,-0.79253 -0.79306,-2.0866 0,-2.8791 z"
         style="fill:url(#linearGradient4668);stroke:url(#linearGradient4972);stroke-width:0.99962997;stroke-linecap:round;stroke-linejoin:round;stroke-dashoffset:0.7;enable-background:new"
         id="path6899"
         inkscape:connector-curvature="0" />
      <path
         d="m 21.466,20.528 c 0.5545,-0.55361 1.5695,-0.43158 2.2758,0.2736 l 14.692,13.334 c 0.70628,0.70519 0.16052,2.3863 -0.39398,2.9399 -0.5545,0.55362 -2.2378,1.0996 -2.9441,0.39444 l -13.356,-14.67 c -0.707,-0.705 -0.829,-1.718 -0.274,-2.272 z"
         style="opacity:0.23106001;fill:url(#linearGradient4665)"
         id="rect6533"
         inkscape:connector-curvature="0" />
      <rect
         x="-38.535999"
         y="-2.1129999"
         width="9.2554998"
         height="30.017"
         ry="3.9568"
         rx="3.9568"
         transform="matrix(-0.71098,-0.70321,0.70748,-0.70673,0,0)"
         style="fill:url(#linearGradient5007);stroke:url(#linearGradient5009);stroke-width:1.00020003;stroke-linecap:round;stroke-linejoin:round"
         id="rect5288" />
      <path
         transform="matrix(-1.219,-1.2556,0.57398,-0.55727,44.225,67.64)"
         d="m 28,22.5 a 2,2.5 0 1 1 -4,0 2,2.5 0 1 1 4,0 z"
         style="opacity:0.3;fill:url(#radialGradient5017)"
         id="path4983"
         inkscape:connector-curvature="0" />
      <rect
         x="-37.497002"
         y="-1.1418999"
         width="7.1778998"
         height="27.938"
         ry="2.9676001"
         rx="2.9676001"
         transform="matrix(-0.71239,-0.70178,0.7075,-0.70671,0,0)"
         style="opacity:0.6;fill:none;stroke:url(#radialGradient5004);stroke-linecap:round;stroke-linejoin:round"
         id="rect5292" />
      <path
         d="M 4.622,45.5 9.5338,42.107 10.13,40.058 25.355,24.809 c 1.0355,-1.1676 -0.9169,-3.2394 -2.2113,-2.2016 l -15.231,15.229 -2.0579,0.584 -3.3554,4.931 2.1223,2.1484 z"
         style="fill:url(#linearGradient4999);stroke:url(#linearGradient5001);stroke-linecap:round;stroke-linejoin:round"
         id="path5286"
         inkscape:connector-curvature="0" />
      <rect
         x="-37.436001"
         y="2.4267001"
         width="1.4722"
         height="22.806"
         ry="1.0881"
         rx="0.98918998"
         transform="matrix(-0.71259,-0.70158,0.70777,-0.70644,0,0)"
         style="opacity:0.3;fill:url(#linearGradient4996)"
         id="rect2804" />
      <rect
         x="-34.959999"
         y="3.5355999"
         width="2.0192001"
         height="22.719"
         ry="1.0881"
         rx="0.98916"
         transform="matrix(-0.71338,-0.70078,0.70733,-0.70688,0,0)"
         style="opacity:0.3;fill:url(#linearGradient4993)"
         id="rect5290" />
      <rect
         x="-31.832001"
         y="2.4767001"
         width="1.4722"
         height="22.806"
         ry="1.0881"
         rx="0.98918998"
         transform="matrix(-0.71259,-0.70158,0.70777,-0.70644,0,0)"
         style="opacity:0.25;fill:url(#linearGradient4990)"
         id="rect5398" />
      <path
         d="M 4.6709,44.814 9.0431,41.881 9.5326,40.014 C 9.9352,39.548 8.3565,38.078 7.9309,38.409 l -1.8395,0.51352 -2.9266,4.3821 c 0.57458,0.57589 0.93156,0.93367 1.5061,1.5096 z"
         style="fill:url(#linearGradient4987)"
         id="path5450"
         inkscape:connector-curvature="0" />
      <path
         d="m 24.718,24.115 c 0.07671,-0.38284 -0.45693,-0.86231 -0.82264,-0.86103 -5.1694,5.0206 -10.344,10.3 -15.435,15.403 l -2.0365,0.61347 c -0.89343,1.3132 -1.7869,2.6265 -2.6803,3.9397 0.33805,0.34896 0.6761,0.69792 1.0142,1.0469 1.3304,-0.91601 2.6608,-1.832 3.9912,-2.748 0.18165,-0.57373 0.30843,-1.1798 0.52343,-1.7339"
         style="opacity:0.7;fill:none;stroke:#ffffff;stroke-linecap:round;stroke-linejoin:round"
         id="path4979"
         inkscape:connector-curvature="0" />
    </g>
  </g>
</svg>
